<svg xmlns="http://www.w3.org/2000/svg" viewBox="0 0 1020 340" font-family="ui-monospace, Menlo, Consolas, monospace" font-size="11" role="img" aria-labelledby="t d">
<title id="t">XavierJev at a glance</title>
<desc id="d">Three panels. Latency of one gate decision: 27 ms for one question; four questions at once take 89 ms as installed and 107 ms with four parallel slots on a short command, 278 and 867 ms on a 2,000-character one. Naming N before Y moves the gate's worst answer up for all 83 dev-set commands, and 36 safe commands go from cleared to asked. With no false allow, the 95% upper bound on the false-allow rate is 3.9% after 76 unsafe commands, 2% after 149 and 1% after 299.</desc>
<rect width="1020" height="340" rx="10" fill="#0f1013"/>
<text x="24.0" y="34.0" fill="#ecedee" font-size="13">Where a gate decision's time goes</text>
<text x="24.0" y="52.0" fill="#9096a0" >ms · llama3.1:8b on Ollama · RTX 5080</text>
<text x="24.0" y="88.0" fill="#9096a0" >one question</text>
<path d="M24,98h3.7a3.7199999999999998,3.7199999999999998 0 0 1 3.7199999999999998,3.7199999999999998v4.6a3.7199999999999998,3.7199999999999998 0 0 1 -3.7199999999999998,3.7199999999999998h-3.7z" fill="#3987e5"/>
<text x="37.4" y="108.0" fill="#ecedee" >27</text>
<path d="M24,112h3.7a3.7199999999999998,3.7199999999999998 0 0 1 3.7199999999999998,3.7199999999999998v4.6a3.7199999999999998,3.7199999999999998 0 0 1 -3.7199999999999998,3.7199999999999998h-3.7z" fill="#d95926"/>
<text x="37.4" y="122.0" fill="#ecedee" >27</text>
<text x="24.0" y="158.0" fill="#9096a0" >four at once, short command</text>
<path d="M24,168h20.5a4,4 0 0 1 4,4v4.0a4,4 0 0 1 -4,4h-20.5z" fill="#3987e5"/>
<text x="54.5" y="178.0" fill="#ecedee" >89</text>
<path d="M24,182h25.5a4,4 0 0 1 4,4v4.0a4,4 0 0 1 -4,4h-25.5z" fill="#d95926"/>
<text x="59.5" y="192.0" fill="#ecedee" >107</text>
<text x="24.0" y="228.0" fill="#9096a0" >four at once, 2,000 characters</text>
<path d="M24,238h72.6a4,4 0 0 1 4,4v4.0a4,4 0 0 1 -4,4h-72.6z" fill="#3987e5"/>
<text x="106.6" y="248.0" fill="#ecedee" >278</text>
<path d="M24,252h234.9a4,4 0 0 1 4,4v4.0a4,4 0 0 1 -4,4h-234.9z" fill="#d95926"/>
<text x="268.9" y="262.0" fill="#ecedee" >867</text>
<line x1="24" x2="24" y1="92" y2="268" stroke="#2a2e36"/>
<path d="M24,292h8.0a4,4 0 0 1 4,4v1.0a4,4 0 0 1 -4,4h-8.0z" fill="#3987e5"/>
<text x="42.0" y="300.0" fill="#9096a0" >as installed</text>
<path d="M144,292h8.0a4,4 0 0 1 4,4v1.0a4,4 0 0 1 -4,4h-8.0z" fill="#d95926"/>
<text x="162.0" y="300.0" fill="#9096a0" >4 parallel slots</text>
<text x="24.0" y="324.0" fill="#5b616b" >four slots read the same command four times</text>
<text x="364.0" y="34.0" fill="#ecedee" font-size="13">Only “Y or N” became “N or Y”</text>
<text x="364.0" y="52.0" fill="#9096a0" >the gate's worst answer, 83 dev-set commands</text>
<line x1="410.8831532864082" x2="410.8831532864082" y1="72" y2="276" stroke="#1e2127"/>
<line x1="394" x2="650" y1="262.5462372248935" y2="262.5462372248935" stroke="#1e2127"/>
<text x="410.9" y="290.0" fill="#9096a0" text-anchor="middle">0.01</text>
<text x="388.0" y="266.5" fill="#9096a0" text-anchor="end">0.01</text>
<line x1="488.47733616350314" x2="488.47733616350314" y1="72" y2="276" stroke="#1e2127"/>
<line x1="394" x2="650" y1="200.7133727447084" y2="200.7133727447084" stroke="#1e2127"/>
<text x="488.5" y="290.0" fill="#9096a0" text-anchor="middle">0.2</text>
<text x="388.0" y="204.7" fill="#9096a0" text-anchor="end">0.2</text>
<line x1="522" x2="522" y1="72" y2="276" stroke="#1e2127"/>
<line x1="394" x2="650" y1="174" y2="174" stroke="#1e2127"/>
<text x="522.0" y="290.0" fill="#9096a0" text-anchor="middle">0.5</text>
<text x="388.0" y="178.0" fill="#9096a0" text-anchor="end">0.5</text>
<line x1="633.1168467135918" x2="633.1168467135918" y1="72" y2="276" stroke="#1e2127"/>
<line x1="394" x2="650" y1="85.45376277510653" y2="85.45376277510653" stroke="#1e2127"/>
<text x="633.1" y="290.0" fill="#9096a0" text-anchor="middle">0.99</text>
<text x="388.0" y="89.5" fill="#9096a0" text-anchor="end">0.99</text>
<line x1="394" y1="276" x2="650" y2="72" stroke="#2a2e36"/>
<line x1="488.47733616350314" x2="488.47733616350314" y1="72" y2="276" stroke="#9096a0" stroke-dasharray="4 3"/>
<line x1="394" x2="650" y1="200.7133727447084" y2="200.7133727447084" stroke="#9096a0" stroke-dasharray="4 3"/>
<circle cx="650.0" cy="72.0" r="4.5" fill="#d95926" stroke="#0f1013" stroke-width="1.5"/>
<circle cx="650.0" cy="72.0" r="4.5" fill="#d95926" stroke="#0f1013" stroke-width="1.5"/>
<circle cx="650.0" cy="72.0" r="4.5" fill="#d95926" stroke="#0f1013" stroke-width="1.5"/>
<circle cx="548.7" cy="151.7" r="4.5" fill="#d95926" stroke="#0f1013" stroke-width="1.5"/>
<circle cx="550.7" cy="151.3" r="4.5" fill="#d95926" stroke="#0f1013" stroke-width="1.5"/>
<circle cx="597.4" cy="90.2" r="4.5" fill="#d95926" stroke="#0f1013" stroke-width="1.5"/>
<circle cx="538.1" cy="144.4" r="4.5" fill="#d95926" stroke="#0f1013" stroke-width="1.5"/>
<circle cx="606.5" cy="96.5" r="4.5" fill="#d95926" stroke="#0f1013" stroke-width="1.5"/>
<circle cx="548.8" cy="137.4" r="4.5" fill="#d95926" stroke="#0f1013" stroke-width="1.5"/>
<circle cx="548.7" cy="140.7" r="4.5" fill="#d95926" stroke="#0f1013" stroke-width="1.5"/>
<circle cx="578.5" cy="97.5" r="4.5" fill="#d95926" stroke="#0f1013" stroke-width="1.5"/>
<circle cx="592.7" cy="98.7" r="4.5" fill="#d95926" stroke="#0f1013" stroke-width="1.5"/>
<circle cx="517.1" cy="161.7" r="4.5" fill="#d95926" stroke="#0f1013" stroke-width="1.5"/>
<circle cx="650.0" cy="72.0" r="4.5" fill="#d95926" stroke="#0f1013" stroke-width="1.5"/>
<circle cx="621.1" cy="76.4" r="4.5" fill="#d95926" stroke="#0f1013" stroke-width="1.5"/>
<circle cx="650.0" cy="72.0" r="4.5" fill="#d95926" stroke="#0f1013" stroke-width="1.5"/>
<circle cx="551.7" cy="134.5" r="4.5" fill="#d95926" stroke="#0f1013" stroke-width="1.5"/>
<circle cx="510.1" cy="161.7" r="4.5" fill="#d95926" stroke="#0f1013" stroke-width="1.5"/>
<circle cx="599.3" cy="107.9" r="4.5" fill="#d95926" stroke="#0f1013" stroke-width="1.5"/>
<circle cx="588.2" cy="131.4" r="4.5" fill="#d95926" stroke="#0f1013" stroke-width="1.5"/>
<circle cx="566.0" cy="146.0" r="4.5" fill="#d95926" stroke="#0f1013" stroke-width="1.5"/>
<circle cx="527.6" cy="160.8" r="4.5" fill="#d95926" stroke="#0f1013" stroke-width="1.5"/>
<circle cx="500.4" cy="165.3" r="4.5" fill="#d95926" stroke="#0f1013" stroke-width="1.5"/>
<circle cx="551.1" cy="152.0" r="4.5" fill="#d95926" stroke="#0f1013" stroke-width="1.5"/>
<circle cx="650.0" cy="72.0" r="4.5" fill="#d95926" stroke="#0f1013" stroke-width="1.5"/>
<circle cx="520.0" cy="150.6" r="4.5" fill="#d95926" stroke="#0f1013" stroke-width="1.5"/>
<circle cx="616.5" cy="83.4" r="4.5" fill="#d95926" stroke="#0f1013" stroke-width="1.5"/>
<circle cx="580.6" cy="98.0" r="4.5" fill="#d95926" stroke="#0f1013" stroke-width="1.5"/>
<circle cx="640.4" cy="72.0" r="4.5" fill="#d95926" stroke="#0f1013" stroke-width="1.5"/>
<circle cx="538.4" cy="136.0" r="4.5" fill="#d95926" stroke="#0f1013" stroke-width="1.5"/>
<circle cx="650.0" cy="72.0" r="4.5" fill="#d95926" stroke="#0f1013" stroke-width="1.5"/>
<circle cx="519.1" cy="146.5" r="4.5" fill="#d95926" stroke="#0f1013" stroke-width="1.5"/>
<circle cx="609.4" cy="86.6" r="4.5" fill="#d95926" stroke="#0f1013" stroke-width="1.5"/>
<circle cx="649.6" cy="72.0" r="4.5" fill="#d95926" stroke="#0f1013" stroke-width="1.5"/>
<circle cx="650.0" cy="72.0" r="4.5" fill="#d95926" stroke="#0f1013" stroke-width="1.5"/>
<circle cx="566.9" cy="93.6" r="4.5" fill="#d95926" stroke="#0f1013" stroke-width="1.5"/>
<circle cx="650.0" cy="72.0" r="4.5" fill="#d95926" stroke="#0f1013" stroke-width="1.5"/>
<circle cx="650.0" cy="72.0" r="4.5" fill="#d95926" stroke="#0f1013" stroke-width="1.5"/>
<circle cx="650.0" cy="72.0" r="4.5" fill="#d95926" stroke="#0f1013" stroke-width="1.5"/>
<circle cx="650.0" cy="72.0" r="4.5" fill="#d95926" stroke="#0f1013" stroke-width="1.5"/>
<circle cx="611.9" cy="92.8" r="4.5" fill="#d95926" stroke="#0f1013" stroke-width="1.5"/>
<circle cx="650.0" cy="72.0" r="4.5" fill="#d95926" stroke="#0f1013" stroke-width="1.5"/>
<circle cx="463.8" cy="194.1" r="4.5" fill="#3987e5" stroke="#0f1013" stroke-width="1.5"/>
<circle cx="455.7" cy="192.6" r="4.5" fill="#3987e5" stroke="#0f1013" stroke-width="1.5"/>
<circle cx="479.8" cy="180.6" r="4.5" fill="#3987e5" stroke="#0f1013" stroke-width="1.5"/>
<circle cx="468.6" cy="174.7" r="4.5" fill="#3987e5" stroke="#0f1013" stroke-width="1.5"/>
<circle cx="465.7" cy="174.9" r="4.5" fill="#3987e5" stroke="#0f1013" stroke-width="1.5"/>
<circle cx="467.6" cy="173.1" r="4.5" fill="#3987e5" stroke="#0f1013" stroke-width="1.5"/>
<circle cx="456.0" cy="165.0" r="4.5" fill="#3987e5" stroke="#0f1013" stroke-width="1.5"/>
<circle cx="416.8" cy="190.3" r="4.5" fill="#3987e5" stroke="#0f1013" stroke-width="1.5"/>
<circle cx="452.8" cy="178.1" r="4.5" fill="#3987e5" stroke="#0f1013" stroke-width="1.5"/>
<circle cx="439.2" cy="193.5" r="4.5" fill="#3987e5" stroke="#0f1013" stroke-width="1.5"/>
<circle cx="487.6" cy="168.5" r="4.5" fill="#3987e5" stroke="#0f1013" stroke-width="1.5"/>
<circle cx="419.1" cy="188.4" r="4.5" fill="#3987e5" stroke="#0f1013" stroke-width="1.5"/>
<circle cx="470.4" cy="178.7" r="4.5" fill="#3987e5" stroke="#0f1013" stroke-width="1.5"/>
<circle cx="452.6" cy="183.7" r="4.5" fill="#3987e5" stroke="#0f1013" stroke-width="1.5"/>
<circle cx="446.7" cy="190.5" r="4.5" fill="#3987e5" stroke="#0f1013" stroke-width="1.5"/>
<circle cx="471.1" cy="169.8" r="4.5" fill="#3987e5" stroke="#0f1013" stroke-width="1.5"/>
<circle cx="457.9" cy="171.4" r="4.5" fill="#3987e5" stroke="#0f1013" stroke-width="1.5"/>
<circle cx="468.9" cy="179.9" r="4.5" fill="#3987e5" stroke="#0f1013" stroke-width="1.5"/>
<circle cx="448.9" cy="199.1" r="4.5" fill="#3987e5" stroke="#0f1013" stroke-width="1.5"/>
<circle cx="468.2" cy="183.1" r="4.5" fill="#3987e5" stroke="#0f1013" stroke-width="1.5"/>
<circle cx="429.5" cy="180.9" r="4.5" fill="#3987e5" stroke="#0f1013" stroke-width="1.5"/>
<circle cx="443.8" cy="181.4" r="4.5" fill="#3987e5" stroke="#0f1013" stroke-width="1.5"/>
<circle cx="446.5" cy="184.8" r="4.5" fill="#3987e5" stroke="#0f1013" stroke-width="1.5"/>
<circle cx="460.6" cy="172.9" r="4.5" fill="#3987e5" stroke="#0f1013" stroke-width="1.5"/>
<circle cx="455.8" cy="192.3" r="4.5" fill="#3987e5" stroke="#0f1013" stroke-width="1.5"/>
<circle cx="463.0" cy="186.9" r="4.5" fill="#3987e5" stroke="#0f1013" stroke-width="1.5"/>
<circle cx="621.7" cy="78.4" r="4.5" fill="#3987e5" stroke="#0f1013" stroke-width="1.5"/>
<circle cx="477.1" cy="180.1" r="4.5" fill="#3987e5" stroke="#0f1013" stroke-width="1.5"/>
<circle cx="475.1" cy="177.4" r="4.5" fill="#3987e5" stroke="#0f1013" stroke-width="1.5"/>
<circle cx="498.1" cy="169.7" r="4.5" fill="#3987e5" stroke="#0f1013" stroke-width="1.5"/>
<circle cx="473.2" cy="185.5" r="4.5" fill="#3987e5" stroke="#0f1013" stroke-width="1.5"/>
<circle cx="444.1" cy="191.8" r="4.5" fill="#3987e5" stroke="#0f1013" stroke-width="1.5"/>
<circle cx="490.0" cy="176.8" r="4.5" fill="#3987e5" stroke="#0f1013" stroke-width="1.5"/>
<circle cx="499.0" cy="159.2" r="4.5" fill="#3987e5" stroke="#0f1013" stroke-width="1.5"/>
<circle cx="575.5" cy="98.0" r="4.5" fill="#3987e5" stroke="#0f1013" stroke-width="1.5"/>
<circle cx="444.5" cy="171.7" r="4.5" fill="#3987e5" stroke="#0f1013" stroke-width="1.5"/>
<circle cx="484.5" cy="145.4" r="4.5" fill="#3987e5" stroke="#0f1013" stroke-width="1.5"/>
<circle cx="458.8" cy="170.8" r="4.5" fill="#3987e5" stroke="#0f1013" stroke-width="1.5"/>
<circle cx="459.2" cy="148.4" r="4.5" fill="#3987e5" stroke="#0f1013" stroke-width="1.5"/>
<circle cx="456.2" cy="174.8" r="4.5" fill="#3987e5" stroke="#0f1013" stroke-width="1.5"/>
<circle cx="464.4" cy="164.6" r="4.5" fill="#3987e5" stroke="#0f1013" stroke-width="1.5"/>
<text x="398.0" y="84.0" fill="#ecedee" >36 cleared as shipped,</text>
<text x="398.0" y="98.0" fill="#ecedee" >asked when swapped</text>
<text x="522.0" y="306.0" fill="#9096a0" text-anchor="middle">as shipped →</text>
<text x="388.0" y="64.0" fill="#9096a0" text-anchor="start">swapped ↑</text>
<circle cx="398" cy="320" r="4.5" fill="#3987e5"/>
<text x="408.0" y="324.0" fill="#9096a0" >labelled safe</text>
<circle cx="518" cy="320" r="4.5" fill="#d95926"/>
<text x="528.0" y="324.0" fill="#9096a0" >labelled unsafe</text>
<text x="704.0" y="34.0" fill="#ecedee" font-size="13">Zero is a count, not a rate</text>
<text x="704.0" y="52.0" fill="#9096a0" >95% bound on the false-allow rate, zero seen</text>
<line x1="738" x2="992" y1="276" y2="276" stroke="#1e2127"/>
<text x="732.0" y="280.0" fill="#9096a0" text-anchor="end">0%</text>
<line x1="738" x2="992" y1="208" y2="208" stroke="#1e2127"/>
<text x="732.0" y="212.0" fill="#9096a0" text-anchor="end">5%</text>
<line x1="738" x2="992" y1="139.99999999999997" y2="139.99999999999997" stroke="#1e2127"/>
<text x="732.0" y="144.0" fill="#9096a0" text-anchor="end">10%</text>
<line x1="738" x2="992" y1="72" y2="72" stroke="#1e2127"/>
<text x="732.0" y="76.0" fill="#9096a0" text-anchor="end">15%</text>
<text x="763.4" y="290.0" fill="#9096a0" text-anchor="middle">50</text>
<text x="805.7" y="290.0" fill="#9096a0" text-anchor="middle">100</text>
<text x="890.4" y="290.0" fill="#9096a0" text-anchor="middle">200</text>
<text x="975.1" y="290.0" fill="#9096a0" text-anchor="middle">300</text>
<polyline points="738.0,86.8 739.7,102.9 741.4,116.4 743.1,128.0 744.8,138.0 746.5,146.8 748.2,154.5 749.9,161.3 751.5,167.4 753.2,172.9 754.9,177.9 756.6,182.4 758.3,186.5 760.0,190.3 761.7,193.7 763.4,196.9 765.1,199.9 766.8,202.6 768.5,205.2 770.2,207.5 771.9,209.8 773.6,211.8 775.3,213.8 776.9,215.6 778.6,217.4 780.3,219.0 782.0,220.6 783.7,222.0 785.4,223.4 787.1,224.8 788.8,226.0 790.5,227.2 792.2,228.4 793.9,229.4 795.6,230.5 797.3,231.5 799.0,232.4 800.7,233.3 802.3,234.2 804.0,235.1 805.7,235.9 807.4,236.6 809.1,237.4 810.8,238.1 812.5,238.8 814.2,239.5 815.9,240.1 817.6,240.7 819.3,241.3 821.0,241.9 822.7,242.5 824.4,243.0 826.1,243.5 827.7,244.0 829.4,244.5 831.1,245.0 832.8,245.5 834.5,245.9 836.2,246.4 837.9,246.8 839.6,247.2 841.3,247.6 843.0,248.0 844.7,248.4 846.4,248.7 848.1,249.1 849.8,249.5 851.5,249.8 853.1,250.1 854.8,250.5 856.5,250.8 858.2,251.1 859.9,251.4 861.6,251.7 863.3,252.0 865.0,252.2 866.7,252.5 868.4,252.8 870.1,253.0 871.8,253.3 873.5,253.6 875.2,253.8 876.9,254.0 878.5,254.3 880.2,254.5 881.9,254.7 883.6,254.9 885.3,255.2 887.0,255.4 888.7,255.6 890.4,255.8 892.1,256.0 893.8,256.2 895.5,256.4 897.2,256.6 898.9,256.7 900.6,256.9 902.3,257.1 903.9,257.3 905.6,257.4 907.3,257.6 909.0,257.8 910.7,257.9 912.4,258.1 914.1,258.2 915.8,258.4 917.5,258.6 919.2,258.7 920.9,258.8 922.6,259.0 924.3,259.1 926.0,259.3 927.7,259.4 929.3,259.5 931.0,259.7 932.7,259.8 934.4,259.9 936.1,260.1 937.8,260.2 939.5,260.3 941.2,260.4 942.9,260.5 944.6,260.7 946.3,260.8 948.0,260.9 949.7,261.0 951.4,261.1 953.1,261.2 954.7,261.3 956.4,261.4 958.1,261.5 959.8,261.6 961.5,261.7 963.2,261.8 964.9,261.9 966.6,262.0 968.3,262.1 970.0,262.2 971.7,262.3 973.4,262.4 975.1,262.5 976.8,262.6 978.5,262.7 980.1,262.8 981.8,262.8 983.5,262.9 985.2,263.0 986.9,263.1 988.6,263.2 990.3,263.2 992.0,263.3" fill="none" stroke="#3987e5" stroke-width="2"/>
<circle cx="785.4133333333333" cy="223.43495725301327" r="4.5" fill="#3987e5" stroke="#0f1013" stroke-width="2"/>
<text x="793.4" y="213.4" fill="#ecedee" text-anchor="start">76 · test 3 today → 3.9%</text>
<circle cx="847.22" cy="248.9294499398683" r="4.5" fill="#3987e5" stroke="#0f1013" stroke-width="2"/>
<text x="855.2" y="238.9" fill="#ecedee" text-anchor="start">149 → 2.0%</text>
<circle cx="974.22" cy="262.441960361657" r="4.5" fill="#3987e5" stroke="#0f1013" stroke-width="2"/>
<text x="972.2" y="252.4" fill="#ecedee" text-anchor="end">299 → 1.0%</text>
<text x="865.0" y="306.0" fill="#9096a0" text-anchor="middle">unsafe commands tested →</text>
<text x="704.0" y="324.0" fill="#5b616b" >claiming &lt;1% takes 299 with none let through</text>
</svg>
